{
    "asset" : {
        "generator" : "Khronos glTF Blender I/O v1.8.19",
        "version" : "2.0"
    },
    "scene" : 0,
    "scenes" : [
        {
            "name" : "Scene",
            "nodes" : [
                0
            ]
        }
    ],
    "nodes" : [
        {
            "mesh" : 0,
            "name" : "\u98de\u673a03"
        }
    ],
    "materials" : [
        {
            "doubleSided" : true,
            "name" : "\u9999\u6e2f\u6ce2\u97f3",
            "pbrMetallicRoughness" : {
                "baseColorTexture" : {
                    "index" : 0
                },
                "metallicFactor" : 0,
                "roughnessFactor" : 0.5
            }
        },
        {
            "doubleSided" : true,
            "name" : "\u67d0\u9f99\u578b\u98de\u673a6",
            "pbrMetallicRoughness" : {
                "baseColorFactor" : [
                    0.36078399419784546,
                    0.36078399419784546,
                    0.36078399419784546,
                    1
                ],
                "metallicFactor" : 0,
                "roughnessFactor" : 0.5
            }
        },
        {
            "doubleSided" : true,
            "name" : "\u67d0\u9f99\u578b\u98de\u673a5",
            "pbrMetallicRoughness" : {
                "baseColorTexture" : {
                    "index" : 1
                },
                "metallicFactor" : 0,
                "roughnessFactor" : 0.5
            }
        },
        {
            "doubleSided" : true,
            "name" : "\u8f6e\u5b50\u4fa7\u9762",
            "pbrMetallicRoughness" : {
                "baseColorTexture" : {
                    "index" : 2
                },
                "metallicFactor" : 0,
                "roughnessFactor" : 0.5
            }
        }
    ],
    "meshes" : [
        {
            "name" : "Obj3d66-596845-7-194",
            "primitives" : [
                {
                    "attributes" : {
                        "POSITION" : 0,
                        "NORMAL" : 1,
                        "TEXCOORD_0" : 2
                    },
                    "indices" : 3,
                    "material" : 0
                },
                {
                    "attributes" : {
                        "POSITION" : 4,
                        "NORMAL" : 5,
                        "TEXCOORD_0" : 6
                    },
                    "indices" : 7,
                    "material" : 1
                },
                {
                    "attributes" : {
                        "POSITION" : 8,
                        "NORMAL" : 9,
                        "TEXCOORD_0" : 10
                    },
                    "indices" : 11,
                    "material" : 2
                },
                {
                    "attributes" : {
                        "POSITION" : 12,
                        "NORMAL" : 13,
                        "TEXCOORD_0" : 14
                    },
                    "indices" : 15,
                    "material" : 3
                }
            ]
        }
    ],
    "textures" : [
        {
            "sampler" : 0,
            "source" : 0
        },
        {
            "sampler" : 0,
            "source" : 1
        },
        {
            "sampler" : 0,
            "source" : 2
        }
    ],
    "images" : [
        {
            "bufferView" : 4,
            "mimeType" : "image/jpeg",
            "name" : "3d66Model-596845-files-9"
        },
        {
            "bufferView" : 13,
            "mimeType" : "image/jpeg",
            "name" : "3d66Model-596845-files-7"
        },
        {
            "bufferView" : 18,
            "mimeType" : "image/jpeg",
            "name" : "3d66Model-596845-files-8"
        }
    ],
    "accessors" : [
        {
            "bufferView" : 0,
            "componentType" : 5126,
            "count" : 2190,
            "max" : [
                8.816446304321289,
                5.841607093811035,
                9.114838600158691
            ],
            "min" : [
                -8.816446304321289,
                0.0663151741027832,
                -9.114838600158691
            ],
            "type" : "VEC3"
        },
        {
            "bufferView" : 1,
            "componentType" : 5126,
            "count" : 2190,
            "type" : "VEC3"
        },
        {
            "bufferView" : 2,
            "componentType" : 5126,
            "count" : 2190,
            "type" : "VEC2"
        },
        {
            "bufferView" : 3,
            "componentType" : 5123,
            "count" : 6690,
            "type" : "SCALAR"
        },
        {
            "bufferView" : 5,
            "componentType" : 5126,
            "count" : 352,
            "max" : [
                -0.802860677242279,
                1.35085129737854,
                7.9141387939453125
            ],
            "min" : [
                -7.71850061416626,
                0.18249750137329102,
                0.8117547631263733
            ],
            "type" : "VEC3"
        },
        {
            "bufferView" : 6,
            "componentType" : 5126,
            "count" : 352,
            "type" : "VEC3"
        },
        {
            "bufferView" : 7,
            "componentType" : 5126,
            "count" : 352,
            "type" : "VEC2"
        },
        {
            "bufferView" : 8,
            "componentType" : 5123,
            "count" : 1020,
            "type" : "SCALAR"
        },
        {
            "bufferView" : 9,
            "componentType" : 5126,
            "count" : 2592,
            "max" : [
                -0.4762837290763855,
                0.4208512306213379,
                8.085100173950195
            ],
            "min" : [
                -7.881172180175781,
                0,
                0.4895693063735962
            ],
            "type" : "VEC3"
        },
        {
            "bufferView" : 10,
            "componentType" : 5126,
            "count" : 2592,
            "type" : "VEC3"
        },
        {
            "bufferView" : 11,
            "componentType" : 5126,
            "count" : 2592,
            "type" : "VEC2"
        },
        {
            "bufferView" : 12,
            "componentType" : 5123,
            "count" : 12960,
            "type" : "SCALAR"
        },
        {
            "bufferView" : 14,
            "componentType" : 5126,
            "count" : 360,
            "max" : [
                -0.5194167494773865,
                0.3574709892272949,
                8.039898872375488
            ],
            "min" : [
                -7.838037014007568,
                0.06338119506835938,
                0.5347698330879211
            ],
            "type" : "VEC3"
        },
        {
            "bufferView" : 15,
            "componentType" : 5126,
            "count" : 360,
            "type" : "VEC3"
        },
        {
            "bufferView" : 16,
            "componentType" : 5126,
            "count" : 360,
            "type" : "VEC2"
        },
        {
            "bufferView" : 17,
            "componentType" : 5123,
            "count" : 1020,
            "type" : "SCALAR"
        }
    ],
    "bufferViews" : [
        {
            "buffer" : 0,
            "byteLength" : 26280,
            "byteOffset" : 0
        },
        {
            "buffer" : 0,
            "byteLength" : 26280,
            "byteOffset" : 26280
        },
        {
            "buffer" : 0,
            "byteLength" : 17520,
            "byteOffset" : 52560
        },
        {
            "buffer" : 0,
            "byteLength" : 13380,
            "byteOffset" : 70080
        },
        {
            "buffer" : 0,
            "byteLength" : 46924,
            "byteOffset" : 83460
        },
        {
            "buffer" : 0,
            "byteLength" : 4224,
            "byteOffset" : 130384
        },
        {
            "buffer" : 0,
            "byteLength" : 4224,
            "byteOffset" : 134608
        },
        {
            "buffer" : 0,
            "byteLength" : 2816,
            "byteOffset" : 138832
        },
        {
            "buffer" : 0,
            "byteLength" : 2040,
            "byteOffset" : 141648
        },
        {
            "buffer" : 0,
            "byteLength" : 31104,
            "byteOffset" : 143688
        },
        {
            "buffer" : 0,
            "byteLength" : 31104,
            "byteOffset" : 174792
        },
        {
            "buffer" : 0,
            "byteLength" : 20736,
            "byteOffset" : 205896
        },
        {
            "buffer" : 0,
            "byteLength" : 25920,
            "byteOffset" : 226632
        },
        {
            "buffer" : 0,
            "byteLength" : 39894,
            "byteOffset" : 252552
        },
        {
            "buffer" : 0,
            "byteLength" : 4320,
            "byteOffset" : 292448
        },
        {
            "buffer" : 0,
            "byteLength" : 4320,
            "byteOffset" : 296768
        },
        {
            "buffer" : 0,
            "byteLength" : 2880,
            "byteOffset" : 301088
        },
        {
            "buffer" : 0,
            "byteLength" : 2040,
            "byteOffset" : 303968
        },
        {
            "buffer" : 0,
            "byteLength" : 27121,
            "byteOffset" : 306008
        }
    ],
    "samplers" : [
        {
            "magFilter" : 9729,
            "minFilter" : 9987
        }
    ],
    "buffers" : [
        {
            "byteLength" : 333132,
            "uri" : "data:application/octet-stream;base64,"
        }
    ]
}
